<?xml version="1.0" encoding="UTF-8" standalone="no"?>
<svg width="163px" height="92px" viewBox="0 0 163 92" version="1.1" xmlns="http://www.w3.org/2000/svg" xmlns:xlink="http://www.w3.org/1999/xlink">
    <!-- Generator: Sketch 44.1 (41455) - http://www.bohemiancoding.com/sketch -->
    <title>GEI-logo-White-Text</title>
    <desc>Created with Sketch.</desc>
    <defs>
        <polygon id="path-1" points="0 21.9762478 0 43.6496802 34.3683912 43.6496802 34.3683912 0.302815407 0 0.302815407 0 21.9762478"></polygon>
        <polygon id="path-3" points="65.0877611 65.3881134 65.0877611 0.950991279 0.389285985 0.950991279 0.389285985 65.3881134 65.0877611 65.3881134"></polygon>
    </defs>
    <g id="Batch-1" stroke="none" stroke-width="1" fill="none" fill-rule="evenodd">
        <g id="Water-Solutions" transform="translate(-20.000000, -20.000000)">
            <g id="GEI-logo-White-Text" transform="translate(20.000000, 20.000000)">
                <g id="Group-3" transform="translate(0.000000, 47.909884)">
                    <mask id="mask-2" fill="white">
                        <use xlink:href="#path-1"></use>
                    </mask>
                    <g id="Clip-2"></g>
                    <path d="M30.2017478,38.6601744 C28.2082614,39.8649055 23.8598086,40.1655552 21.2610038,40.1655552 C10.1471028,40.1655552 4.1666434,32.6386512 4.1666434,22.041282 C4.1666434,11.6230233 10.3289122,3.91700872 21.2610038,3.91700872 C24.946387,3.91700872 28.8114407,4.33706541 32.0733151,6.1452282 L32.5567142,2.29008866 C29.7183488,0.846543605 24.462988,0.302815407 21.2610038,0.302815407 C8.21350649,0.302815407 0,9.2753968 0,22.041282 C0,35.0481134 7.97394589,43.7776163 21.2610038,43.7776163 C25.9131852,43.7776163 30.0798286,43.0569099 34.3683912,41.1890436 L34.3683912,20.2949549 L20.4161249,20.2949549 L20.4161249,23.9091483 L30.2017478,23.9091483 L30.2017478,38.6601744" id="Fill-1" fill="#000000" mask="url(#mask-2)"></path>
                </g>
                <polyline id="Fill-4" fill="#000000" points="44.2032097 90.9667936 65.5882716 90.9667936 65.5882716 87.3526003 48.371992 87.3526003 48.371992 71.1558968 64.0161552 71.1558968 64.0161552 67.5417035 48.371992 67.5417035 48.371992 52.5497311 64.8610341 52.5497311 64.8610341 48.9376701 44.2032097 48.9376701 44.2032097 90.9667936"></polyline>
                <polygon id="Fill-5" fill="#000000" points="73.1344307 90.9667936 77.3010741 90.9667936 77.3010741 48.9376701 73.1344307 48.9376701"></polygon>
                <path d="M97.9396481,82.4078721 C97.4883331,82.1733227 96.4488111,82.0858997 95.9376059,82.0858997 C93.2361323,82.0858997 91.5335409,83.9431047 91.5335409,86.584984 C91.5335409,89.2780378 93.1869368,91.0862006 95.9376059,91.0862006 C96.487312,91.0862006 97.4626659,90.9987776 97.9396481,90.7109215 L97.8883137,89.9624956 C97.3878032,90.2631453 96.5129792,90.3377747 95.9376059,90.3377747 C93.636113,90.3377747 92.3998091,88.7790872 92.3998091,86.584984 C92.3998091,84.4292616 93.6724748,82.8343256 95.9376059,82.8343256 C96.549341,82.8343256 97.3364687,82.9196163 97.8883137,83.2074724 L97.9396481,82.4078721" id="Fill-6" fill="#000000"></path>
                <path d="M101.432527,87.7577311 C101.432527,86.2864666 102.17046,85.1030581 103.545794,85.1030581 C104.921129,85.1030581 105.659061,86.2864666 105.659061,87.7577311 C105.659061,89.2289956 104.921129,90.4124041 103.545794,90.4124041 C102.17046,90.4124041 101.432527,89.2289956 101.432527,87.7577311 Z M100.568398,87.7577311 C100.568398,89.4912645 101.483862,91.0862006 103.545794,91.0862006 C105.609865,91.0862006 106.521051,89.4912645 106.521051,87.7577311 C106.521051,86.0241977 105.609865,84.4292616 103.545794,84.4292616 C101.483862,84.4292616 100.568398,86.0241977 100.568398,87.7577311 L100.568398,87.7577311 Z" id="Fill-7" fill="#000000"></path>
                <path d="M108.912379,90.9348096 L109.701646,90.9348096 L109.701646,87.4208328 C109.701646,86.3610959 110.150822,85.1030581 111.588186,85.1030581 C112.676903,85.1030581 113.102551,85.874939 113.102551,87.071141 L113.102551,90.9348096 L113.891818,90.9348096 L113.891818,86.8728401 C113.891818,85.4762049 113.288638,84.4292616 111.714383,84.4292616 C110.390383,84.4292616 109.913401,85.1393067 109.650312,85.7128866 L109.624644,85.7128866 L109.624644,84.5785203 L108.863184,84.5785203 C108.912379,85.0902645 108.912379,85.5892151 108.912379,86.0732398 L108.912379,90.9348096" id="Fill-8" fill="#000000"></path>
                <path d="M116.208283,90.7876831 C116.768684,91.0115712 117.382558,91.0862006 117.996432,91.0862006 C118.958952,91.0862006 120.220923,90.6234985 120.220923,89.2780378 C120.220923,87.1969448 117.083107,87.3462035 117.083107,86.1606628 C117.083107,85.3504012 117.643508,85.1030581 118.456303,85.1030581 C118.894784,85.1030581 119.457324,85.213936 119.870138,85.4015756 L119.94714,84.7149855 C119.382461,84.503891 118.706558,84.4292616 118.370746,84.4292616 C117.320529,84.4292616 116.29598,84.902625 116.29598,86.1606628 C116.29598,88.0072064 119.356794,87.7705247 119.356794,89.2780378 C119.356794,90.0008765 118.695864,90.4124041 117.945098,90.4124041 C117.333363,90.4124041 116.75585,90.2503517 116.283146,90.0136701 L116.208283,90.7876831" id="Fill-9" fill="#000000"></path>
                <path d="M127.514688,84.5785203 L126.727561,84.5785203 L126.727561,88.0946294 C126.727561,89.152234 126.278384,90.4124041 124.838882,90.4124041 C123.750165,90.4124041 123.326656,89.6405233 123.326656,88.4443212 L123.326656,84.5785203 L122.539528,84.5785203 L122.539528,88.6426221 C122.539528,90.0392573 123.138429,91.0862006 124.712685,91.0862006 C126.038824,91.0862006 126.513667,90.3740233 126.776756,89.8025756 L126.802423,89.8025756 L126.802423,90.9348096 L127.563884,90.9348096 C127.514688,90.4251977 127.514688,89.9262471 127.514688,89.4400901 L127.514688,84.5785203" id="Fill-10" fill="#000000"></path>
                <polygon id="Fill-11" fill="#000000" points="130.393693 90.9348096 131.180821 90.9348096 131.180821 81.5848169 130.393693 81.5848169"></polygon>
                <path d="M136.823329,84.5785203 L135.375271,84.5785203 L135.375271,82.7703576 L134.583865,83.0454201 L134.583865,84.5785203 L133.334728,84.5785203 L133.334728,85.2501846 L134.583865,85.2501846 L134.583865,88.9667267 C134.583865,90.1266802 134.6352,91.0862006 136.036201,91.0862006 C136.425487,91.0862006 136.810495,90.985984 136.998722,90.9113547 L136.949526,90.2631453 C136.724938,90.3505683 136.526017,90.4124041 136.224427,90.4124041 C135.584886,90.4124041 135.375271,89.9390407 135.375271,89.3654608 L135.375271,85.2501846 L136.823329,85.2501846 L136.823329,84.5785203" id="Fill-12" fill="#000000"></path>
                <path d="M142.728926,88.1202166 C142.728926,88.8046744 142.690425,90.4124041 140.838108,90.4124041 C140.113009,90.4124041 139.514108,90.101093 139.514108,89.2652442 C139.514108,87.868609 141.139698,87.7321439 142.502199,87.7321439 L142.728926,87.7321439 L142.728926,88.1202166 Z M142.803788,90.9348096 L143.578083,90.9348096 C143.513915,90.499827 143.513915,90.1138866 143.513915,89.6021424 L143.513915,86.7982108 C143.513915,85.1393067 142.852984,84.4292616 141.27659,84.4292616 C140.71405,84.4292616 139.888421,84.6275625 139.400744,84.8642442 L139.400744,85.6254637 C139.988951,85.2501846 140.615659,85.1030581 141.27659,85.1030581 C142.33964,85.1030581 142.728926,85.6510509 142.728926,86.7342427 L142.728926,87.0604797 L142.5792,87.0604797 C140.925804,87.0604797 138.652118,87.158564 138.652118,89.2908314 C138.652118,89.8644113 138.938735,91.0862006 140.750412,91.0862006 C141.539678,91.0862006 142.427336,90.674673 142.778121,89.9134535 L142.803788,89.9134535 L142.803788,90.9348096 L142.803788,90.9348096 Z" id="Fill-13" fill="#000000"></path>
                <path d="M146.296668,90.9348096 L147.083795,90.9348096 L147.083795,87.4208328 C147.083795,86.3610959 147.53511,85.1030581 148.972474,85.1030581 C150.061191,85.1030581 150.486839,85.874939 150.486839,87.071141 L150.486839,90.9348096 L151.273967,90.9348096 L151.273967,86.8728401 C151.273967,85.4762049 150.675065,84.4292616 149.098671,84.4292616 C147.772532,84.4292616 147.297689,85.1393067 147.0346,85.7128866 L147.008933,85.7128866 L147.008933,84.5785203 L146.245333,84.5785203 C146.296668,85.0902645 146.296668,85.5892151 146.296668,86.0732398 L146.296668,90.9348096" id="Fill-14" fill="#000000"></path>
                <path d="M156.903641,84.5785203 L155.453444,84.5785203 L155.453444,82.7703576 L154.666316,83.0454201 L154.666316,84.5785203 L153.41504,84.5785203 L153.41504,85.2501846 L154.666316,85.2501846 L154.666316,88.9667267 C154.666316,90.1266802 154.717651,91.0862006 156.116514,91.0862006 C156.503661,91.0862006 156.890808,90.985984 157.079034,90.9113547 L157.029838,90.2631453 C156.803111,90.3505683 156.60419,90.4124041 156.30474,90.4124041 C155.667337,90.4124041 155.453444,89.9390407 155.453444,89.3654608 L155.453444,85.2501846 L156.903641,85.2501846 L156.903641,84.5785203" id="Fill-15" fill="#000000"></path>
                <path d="M158.655428,90.7876831 C159.217968,91.0115712 159.831842,91.0862006 160.443577,91.0862006 C161.406097,91.0862006 162.670207,90.6234985 162.670207,89.2780378 C162.670207,87.1969448 159.532391,87.3462035 159.532391,86.1606628 C159.532391,85.3504012 160.092792,85.1030581 160.905587,85.1030581 C161.344068,85.1030581 161.906608,85.213936 162.319422,85.4015756 L162.394285,84.7149855 C161.831745,84.503891 161.155842,84.4292616 160.820029,84.4292616 C159.769813,84.4292616 158.743124,84.902625 158.743124,86.1606628 C158.743124,88.0072064 161.806078,87.7705247 161.806078,89.2780378 C161.806078,90.0008765 161.143008,90.4124041 160.394381,90.4124041 C159.782646,90.4124041 159.205134,90.2503517 158.73243,90.0136701 L158.655428,90.7876831" id="Fill-16" fill="#000000"></path>
                <polygon id="Fill-17" fill="#E21836" points="90.9966684 71.0748706 161.33979 71.0748706 161.33979 0.950991279 90.9966684 0.950991279"></polygon>
                <g id="Group-21" transform="translate(96.252029, 0.000000)">
                    <mask id="mask-4" fill="white">
                        <use xlink:href="#path-3"></use>
                    </mask>
                    <g id="Clip-19"></g>
                    <path d="M33.8849922,1.51817442 C17.0259145,1.51817442 3.31320874,15.1924055 3.31320874,31.9968052 C3.31320874,48.8033372 17.0259145,62.475436 33.8849922,62.475436 C50.7440698,62.475436 64.4567756,48.8033372 64.4567756,31.9968052 C64.4567756,15.1924055 50.7440698,1.51817442 33.8849922,1.51817442 Z M33.8849922,65.3881134 C15.4174361,65.3881134 0.389285985,50.4089346 0.389285985,31.9968052 C0.389285985,13.5846759 15.4174361,-1.39450291 33.8849922,-1.39450291 C52.3546871,-1.39450291 67.3806983,13.5846759 67.3806983,31.9968052 C67.3806983,50.4089346 52.3546871,65.3881134 33.8849922,65.3881134 L33.8849922,65.3881134 Z" id="Fill-18" fill="#FFFFFF" mask="url(#mask-4)"></path>
                    <path d="M35.4977484,0.916875 C21.8427938,0.916875 10.7353097,11.9918721 10.7353097,25.6021352 C10.7353097,39.2123983 21.8427938,50.2852631 35.4977484,50.2852631 C49.1527029,50.2852631 60.2601871,39.2123983 60.2601871,25.6021352 C60.2601871,11.9918721 49.1527029,0.916875 35.4977484,0.916875 Z M35.4977484,52.229891 C20.769049,52.229891 8.78887973,40.2849288 8.78887973,25.6021352 C8.78887973,10.9193416 20.769049,-1.02562064 35.4977484,-1.02562064 C50.2264478,-1.02562064 62.206617,10.9193416 62.206617,25.6021352 C62.206617,40.2849288 50.2264478,52.229891 35.4977484,52.229891 L35.4977484,52.229891 Z" id="Fill-20" fill="#FFFFFF" mask="url(#mask-4)"></path>
                </g>
                <path d="M126.137215,9.33506686 C115.549492,9.33506686 106.936004,17.9217078 106.936004,28.4764317 C106.936004,39.0332878 115.549492,47.6199288 126.137215,47.6199288 C136.724938,47.6199288 145.340564,39.0332878 145.340564,28.4764317 C145.340564,17.9217078 136.724938,9.33506686 126.137215,9.33506686 Z M126.137215,49.0762674 C114.743114,49.0762674 105.472974,39.8350203 105.472974,28.4764317 C105.472974,17.1199753 114.743114,7.8787282 126.137215,7.8787282 C137.531316,7.8787282 146.801456,17.1199753 146.801456,28.4764317 C146.801456,39.8350203 137.531316,49.0762674 126.137215,49.0762674 L126.137215,49.0762674 Z" id="Fill-22" fill="#FFFFFF"></path>
                <path d="M126.498695,24.5999695 C120.039114,24.5999695 114.783753,29.8410828 114.783753,36.2805305 C114.783753,42.7199782 120.039114,47.9589593 126.498695,47.9589593 C132.960414,47.9589593 138.215775,42.7199782 138.215775,36.2805305 C138.215775,29.8410828 132.960414,24.5999695 126.498695,24.5999695 Z M126.498695,48.929141 C119.502242,48.929141 113.808399,43.2551773 113.808399,36.2805305 C113.808399,29.3037515 119.502242,23.6297878 126.498695,23.6297878 C133.497287,23.6297878 139.18899,29.3037515 139.18899,36.2805305 C139.18899,43.2551773 133.497287,48.929141 126.498695,48.929141 L126.498695,48.929141 Z" id="Fill-23" fill="#FFFFFF"></path>
            </g>
        </g>
    </g>
</svg>